<svg width="925" height="555" viewBox="0 0 925 555" fill="none" xmlns="http://www.w3.org/2000/svg">
<path d="M248.751 165.423C358.029 84.9627 483.776 68.4869 529.565 128.654C531.631 131.375 533.435 134.24 535.106 137.174C530.094 120.753 521.652 106.346 509.474 94.8208C448.667 37.2745 319.344 72.4223 220.659 173.323C192.81 201.788 170.373 232.439 153.877 263.074C176.462 228.886 208.702 194.9 248.751 165.423Z" fill="#D22027"/>
<path d="M414.505 383.264C305.201 463.701 179.506 480.197 133.737 420.036C128.62 413.308 124.779 405.877 122.041 397.925C125.308 422.738 135.104 444.207 151.994 460.193C212.791 517.72 342.101 482.562 440.812 381.7C473.643 348.122 498.91 311.506 515.84 275.464C493.141 313.03 458.515 350.86 414.505 383.264Z" fill="#D22027"/>
<path d="M234.401 363.684C207.434 328.223 222.912 269.365 268.064 215.82H233.52C170.139 275.177 144.067 348.077 175.452 389.33C206.847 430.616 285.372 426.527 361.222 383.371C306.603 399.906 257.626 394.205 234.401 363.684Z" fill="white"/>
<path d="M287.148 195.311C297.894 184.752 309.794 174.587 322.782 165.019C333.593 157.06 344.629 149.927 355.721 143.606C325.673 152.704 293.919 168.508 263.816 190.661C261.738 192.182 259.701 193.748 257.681 195.311H287.148Z" fill="white"/>
<path d="M331.682 318.72C301.155 284.401 329.989 210.408 396.081 153.452C413.915 138.093 432.626 125.552 451.033 116.073C416.584 122.067 377.07 141.261 341.495 171.906C273.307 230.581 245.41 308.953 279.142 346.898C312.89 384.868 395.494 368.043 463.675 309.368C464.723 308.464 465.724 307.553 466.746 306.643C411.617 339.797 356.225 346.281 331.682 318.72Z" fill="white"/>
<path d="M479.07 166.245V205.877H479.165L490.296 166.245H506.305V235.751H491.657V195.725H491.562L480.245 235.751H464.435V166.245H479.07Z" fill="white"/>
<path d="M526.811 192.013H535.39V166.247H551.604V235.75H535.39V202.56H526.811V235.75H510.602V166.247H526.811V192.013Z" fill="white"/>
<path d="M580.185 218.278H578.155C573.463 218.278 572.099 214.858 572.099 206.658V195.142C572.099 186.544 573.662 184.015 578.155 184.015H580.185V218.278ZM580.185 166.246V174.049C562.045 174.049 555.904 178.451 555.904 197.775V207.248C555.904 220.415 559.797 228.234 580.185 228.234V235.749H594.85V228.234C615.245 228.234 619.144 220.415 619.144 207.248V197.775C619.144 178.643 613 174.049 594.85 174.049V166.246H580.185ZM594.85 184.015H596.892C601.386 184.015 602.942 186.544 602.942 195.142V206.658C602.942 214.858 601.572 218.278 596.892 218.278H594.85V184.015Z" fill="white"/>
<path d="M643.944 164.881C633.209 164.881 623.445 169.27 623.445 185.185V216.812C623.445 232.72 633.209 237.115 643.944 237.115C654.684 237.115 664.45 232.72 664.45 216.812V185.185C664.45 169.27 654.684 164.881 643.944 164.881ZM643.944 176.006C647.364 176.006 648.242 178.642 648.242 181.475V220.529C648.242 223.351 647.364 225.988 643.944 225.988C640.525 225.988 639.653 223.351 639.653 220.529V181.475C639.653 178.642 640.525 176.006 643.944 176.006Z" fill="white"/>
<path d="M693.543 191.044V181.473C693.543 178.641 692.655 176.008 689.137 176.008C685.825 176.008 684.944 178.641 684.944 181.473V220.527C684.944 223.35 685.825 225.987 689.137 225.987C692.655 225.987 693.543 223.35 693.543 220.527V208.702H709.735V217.887C709.735 230.862 702.817 237.114 689.137 237.114C678.401 237.114 668.736 232.719 668.736 216.811V185.184C668.736 169.269 678.401 164.88 689.137 164.88C700.957 164.88 709.735 168.398 709.735 183.428V191.044H693.543Z" fill="white"/>
<path d="M714.027 191.14V183.429C714.027 168.396 722.811 164.881 734.627 164.881C745.373 164.881 755.032 169.27 755.032 185.185V216.812C755.032 232.72 745.373 237.115 734.627 237.115C720.967 237.115 714.027 230.863 714.027 217.885V208.702H730.241V220.528C730.241 223.351 731.119 225.988 734.627 225.988C737.952 225.988 738.827 223.351 738.827 220.528V204.519H731.795V193.966H738.827V181.474C738.827 178.642 737.952 176.005 734.627 176.005C731.119 176.005 730.241 178.642 730.241 181.474V191.14H714.027Z" fill="white"/>
<path d="M802.958 166.245V235.751H786.756V176.786H779.541V218.864C779.541 229.594 775.541 235.751 767.526 235.751H758.353V225.205H761.47C765.001 225.205 765.869 224.226 765.869 220.228V166.245H802.958Z" fill="white"/>
<path d="M547.187 331.154L536.441 275.034H543.02L547.764 302.099C549.011 309.174 549.84 315.419 550.59 322.327H550.845C551.598 315.25 552.845 309.174 554.258 302.011L559.417 275.034H564.831L570.081 301.433C571.324 308.093 572.574 314.499 573.328 322.327H573.583C574.496 314.251 575.485 308.175 576.49 301.76L581.153 275.034H587.484L576.575 331.154H570.244L564.916 303.845C563.751 297.929 562.755 291.604 562.005 285.44H561.838C561.088 291.774 560.083 297.847 558.758 304.093L553.259 331.154H547.187Z" fill="#D22027"/>
<path d="M607.83 306.84C607.911 298.848 604.912 295.265 601.832 295.265C597.587 295.265 595.505 301.345 595.253 306.84H607.83ZM595.165 311.588C595.165 323.998 600.086 326.576 604.664 326.576C607.494 326.576 609.742 325.91 611.325 325.078L612.405 329.741C610.163 330.906 606.743 331.657 603.496 331.657C593.84 331.657 588.848 323.747 588.848 311.418C588.848 298.431 594.418 290.27 602.498 290.27C610.659 290.27 613.994 298.93 613.994 307.923C613.994 309.506 613.912 310.589 613.824 311.588H595.165Z" fill="#D22027"/>
<path d="M620.913 273.537H627.332V331.155H620.913V273.537Z" fill="#D22027"/>
<path d="M636.824 273.537H643.243V331.155H636.824V273.537Z" fill="#D22027"/>
<path d="M683.724 306.26C683.724 305.428 683.724 304.426 683.646 303.594C683.225 299.352 680.725 295.765 677.645 295.765C672.313 295.765 670.482 303.179 670.482 311.174C670.482 319.662 672.649 326.495 677.315 326.495C679.309 326.495 682.054 325.411 683.473 319.58C683.646 318.836 683.724 317.916 683.724 316.917V306.26ZM690.052 273.537V321.496C690.052 324.247 690.303 328.825 690.384 331.155H684.886L684.475 326.162H684.227C682.892 328.991 680.06 331.82 675.726 331.82C668.991 331.82 664.073 324.491 664.073 311.174C664.073 296.937 669.983 290.27 676.147 290.27C679.146 290.27 681.972 291.605 683.561 295.021H683.724V273.537H690.052Z" fill="#D22027"/>
<path d="M703.724 311.005C703.724 317.665 704.892 326.743 710.727 326.743C716.216 326.743 717.387 317.332 717.387 311.005C717.387 304.841 716.216 295.348 710.554 295.348C704.811 295.348 703.724 304.841 703.724 311.005ZM723.796 311.005C723.796 326.573 716.633 331.821 710.388 331.821C703.143 331.821 697.312 325.242 697.312 311.086C697.312 296.431 703.897 290.27 710.809 290.27C718.053 290.27 723.796 297.019 723.796 311.005Z" fill="#D22027"/>
<path d="M730.977 301.263C730.977 296.515 730.722 294.104 730.637 290.857H736.217L736.557 295.765H736.723C738.469 292.518 741.716 290.27 745.961 290.27C751.538 290.27 755.705 294.352 755.705 304.092V331.154H749.296V305.264C749.296 300.434 748.379 295.683 743.716 295.683C741.047 295.683 738.469 297.931 737.718 302.18C737.47 303.179 737.389 304.428 737.389 305.841V331.154H730.977V301.263Z" fill="#D22027"/>
<path d="M781.875 306.84C781.956 298.848 778.958 295.265 775.877 295.265C771.632 295.265 769.55 301.345 769.299 306.84H781.875ZM769.217 311.588C769.217 323.998 774.128 326.576 778.71 326.576C781.535 326.576 783.794 325.91 785.366 325.078L786.447 329.741C784.208 330.906 780.788 331.657 777.548 331.657C767.889 331.657 762.89 323.747 762.89 311.418C762.89 298.431 768.46 290.27 776.543 290.27C784.701 290.27 788.039 298.93 788.039 307.923C788.039 309.506 787.954 310.589 787.866 311.588H769.217Z" fill="#D22027"/>
<path d="M796.292 315.587L795.459 275.032H802.456L801.624 315.587H796.292ZM794.875 327.325C794.875 324.577 796.631 322.743 798.954 322.743C801.457 322.743 802.958 324.577 802.958 327.325C802.958 329.988 801.539 331.822 798.873 331.822C796.546 331.822 794.875 329.988 794.875 327.325Z" fill="#D22027"/>
</svg>
